<svg id="visual" viewBox="0 0 900 450" width="900" height="450" xmlns="http://www.w3.org/2000/svg" xmlns:xlink="http://www.w3.org/1999/xlink" version="1.1"><g stroke-width="1" stroke-linejoin="bevel"><path d="M441 227L434 244L449 240Z" fill="#fbd24c" stroke="#fbd24c"></path><path d="M441 227L415 248L434 244Z" fill="#fae77d" stroke="#fae77d"></path><path d="M448 271L451 264L434 244Z" fill="#fbd24c" stroke="#fbd24c"></path><path d="M434 244L451 264L449 240Z" fill="#fdc225" stroke="#fdc225"></path><path d="M415 248L448 271L434 244Z" fill="#ffffbb" stroke="#ffffbb"></path><path d="M441 227L395 229L415 248Z" fill="#fcca3a" stroke="#fcca3a"></path><path d="M423 183L422 190L455 182Z" fill="#fbed8d" stroke="#fbed8d"></path><path d="M441 227L422 190L395 229Z" fill="#fae77d" stroke="#fae77d"></path><path d="M451 264L492 226L449 240Z" fill="#ffffbb" stroke="#ffffbb"></path><path d="M449 240L492 226L441 227Z" fill="#fdf9ac" stroke="#fdf9ac"></path><path d="M517 291L492 226L451 264Z" fill="#fdf9ac" stroke="#fdf9ac"></path><path d="M455 182L422 190L441 227Z" fill="#fdc225" stroke="#fdc225"></path><path d="M422 190L388 194L395 229Z" fill="#fad95d" stroke="#fad95d"></path><path d="M492 226L455 182L441 227Z" fill="#ffffbb" stroke="#ffffbb"></path><path d="M423 183L388 194L422 190Z" fill="#fdf9ac" stroke="#fdf9ac"></path><path d="M366 191L370 249L395 229Z" fill="#fad95d" stroke="#fad95d"></path><path d="M395 229L370 249L415 248Z" fill="#fad95d" stroke="#fad95d"></path><path d="M415 248L410 311L448 271Z" fill="#fae06d" stroke="#fae06d"></path><path d="M367 279L410 311L415 248Z" fill="#ffffbb" stroke="#ffffbb"></path><path d="M448 271L517 291L451 264Z" fill="#fdc225" stroke="#fdc225"></path><path d="M370 249L367 279L415 248Z" fill="#fdc225" stroke="#fdc225"></path><path d="M404 69L366 191L388 194Z" fill="#fbd24c" stroke="#fbd24c"></path><path d="M388 194L366 191L395 229Z" fill="#fbed8d" stroke="#fbed8d"></path><path d="M370 249L337 253L367 279Z" fill="#fdc225" stroke="#fdc225"></path><path d="M498 318L517 291L448 271Z" fill="#ffba00" stroke="#ffba00"></path><path d="M455 352L498 318L448 271Z" fill="#ffba00" stroke="#ffba00"></path><path d="M332 226L337 253L370 249Z" fill="#fcca3a" stroke="#fcca3a"></path><path d="M366 191L332 226L370 249Z" fill="#fcca3a" stroke="#fcca3a"></path><path d="M520 146L455 182L492 226Z" fill="#fcca3a" stroke="#fcca3a"></path><path d="M520 146L488 138L455 182Z" fill="#fcf39c" stroke="#fcf39c"></path><path d="M455 182L449 118L423 183Z" fill="#ffffbb" stroke="#ffffbb"></path><path d="M423 183L449 118L388 194Z" fill="#ffffbb" stroke="#ffffbb"></path><path d="M440 354L455 352L410 311Z" fill="#ffffbb" stroke="#ffffbb"></path><path d="M410 311L455 352L448 271Z" fill="#fad95d" stroke="#fad95d"></path><path d="M339 309L410 311L367 279Z" fill="#fad95d" stroke="#fad95d"></path><path d="M414 363L440 354L410 311Z" fill="#fbd24c" stroke="#fbd24c"></path><path d="M572 322L555 264L517 291Z" fill="#fae06d" stroke="#fae06d"></path><path d="M517 291L555 264L492 226Z" fill="#fdc225" stroke="#fdc225"></path><path d="M488 138L449 118L455 182Z" fill="#fdc225" stroke="#fdc225"></path><path d="M561 188L520 146L492 226Z" fill="#fdf9ac" stroke="#fdf9ac"></path><path d="M488 138L466 101L449 118Z" fill="#ffffbb" stroke="#ffffbb"></path><path d="M555 264L562 217L492 226Z" fill="#fad95d" stroke="#fad95d"></path><path d="M284 308L339 309L337 253Z" fill="#ffba00" stroke="#ffba00"></path><path d="M337 253L339 309L367 279Z" fill="#fdf9ac" stroke="#fdf9ac"></path><path d="M339 309L414 363L410 311Z" fill="#fbed8d" stroke="#fbed8d"></path><path d="M477 406L485 402L455 352Z" fill="#fbd24c" stroke="#fbd24c"></path><path d="M320 142L322 184L366 191Z" fill="#fae06d" stroke="#fae06d"></path><path d="M366 191L322 184L332 226Z" fill="#fdc225" stroke="#fdc225"></path><path d="M261 304L284 308L337 253Z" fill="#fad95d" stroke="#fad95d"></path><path d="M562 217L561 188L492 226Z" fill="#fdf9ac" stroke="#fdf9ac"></path><path d="M521 74L466 101L488 138Z" fill="#fad95d" stroke="#fad95d"></path><path d="M320 142L305 180L322 184Z" fill="#fcca3a" stroke="#fcca3a"></path><path d="M553 149L531 130L520 146Z" fill="#ffffbb" stroke="#ffffbb"></path><path d="M520 146L531 130L488 138Z" fill="#ffba00" stroke="#ffba00"></path><path d="M561 188L553 149L520 146Z" fill="#fbd24c" stroke="#fbd24c"></path><path d="M320 142L366 191L404 69Z" fill="#fbed8d" stroke="#fbed8d"></path><path d="M322 184L305 180L332 226Z" fill="#fcf39c" stroke="#fcf39c"></path><path d="M404 69L388 194L449 118Z" fill="#fbd24c" stroke="#fbd24c"></path><path d="M563 386L572 322L498 318Z" fill="#fae77d" stroke="#fae77d"></path><path d="M498 318L572 322L517 291Z" fill="#fdf9ac" stroke="#fdf9ac"></path><path d="M555 264L600 254L562 217Z" fill="#fae77d" stroke="#fae77d"></path><path d="M562 217L611 149L561 188Z" fill="#fdf9ac" stroke="#fdf9ac"></path><path d="M485 402L498 318L455 352Z" fill="#fdc225" stroke="#fdc225"></path><path d="M617 296L600 254L555 264Z" fill="#fbed8d" stroke="#fbed8d"></path><path d="M561 188L611 149L553 149Z" fill="#fbed8d" stroke="#fbed8d"></path><path d="M457 53L404 69L466 101Z" fill="#fdc225" stroke="#fdc225"></path><path d="M466 101L404 69L449 118Z" fill="#fae77d" stroke="#fae77d"></path><path d="M477 406L455 352L440 354Z" fill="#fcf39c" stroke="#fcf39c"></path><path d="M261 304L337 253L332 226Z" fill="#fad95d" stroke="#fad95d"></path><path d="M339 309L303 346L414 363Z" fill="#fae77d" stroke="#fae77d"></path><path d="M414 363L477 406L440 354Z" fill="#fad95d" stroke="#fad95d"></path><path d="M412 450L477 406L414 363Z" fill="#fdc225" stroke="#fdc225"></path><path d="M284 308L303 346L339 309Z" fill="#fbed8d" stroke="#fbed8d"></path><path d="M493 450L520 398L485 402Z" fill="#fbed8d" stroke="#fbed8d"></path><path d="M485 402L520 398L498 318Z" fill="#fbed8d" stroke="#fbed8d"></path><path d="M536 59L521 74L531 130Z" fill="#fae06d" stroke="#fae06d"></path><path d="M531 130L521 74L488 138Z" fill="#fae77d" stroke="#fae77d"></path><path d="M536 59L531 130L553 149Z" fill="#fbd24c" stroke="#fbd24c"></path><path d="M320 142L268 173L305 180Z" fill="#ffffbb" stroke="#ffffbb"></path><path d="M305 180L268 173L332 226Z" fill="#ffba00" stroke="#ffba00"></path><path d="M262 101L268 173L320 142Z" fill="#fdc225" stroke="#fdc225"></path><path d="M521 74L457 53L466 101Z" fill="#ffba00" stroke="#ffba00"></path><path d="M633 310L617 296L572 322Z" fill="#fae06d" stroke="#fae06d"></path><path d="M572 322L617 296L555 264Z" fill="#fae06d" stroke="#fae06d"></path><path d="M451 0L443 46L457 53Z" fill="#fdc225" stroke="#fdc225"></path><path d="M457 53L443 46L404 69Z" fill="#fcca3a" stroke="#fcca3a"></path><path d="M268 173L261 304L332 226Z" fill="#fcf39c" stroke="#fcf39c"></path><path d="M284 308L240 344L303 346Z" fill="#fcca3a" stroke="#fcca3a"></path><path d="M673 209L611 149L600 254Z" fill="#fcca3a" stroke="#fcca3a"></path><path d="M600 254L611 149L562 217Z" fill="#fcca3a" stroke="#fcca3a"></path><path d="M520 398L563 386L498 318Z" fill="#fdf9ac" stroke="#fdf9ac"></path><path d="M563 386L589 365L572 322Z" fill="#fcca3a" stroke="#fcca3a"></path><path d="M611 149L536 59L553 149Z" fill="#ffffbb" stroke="#ffffbb"></path><path d="M521 74L486 0L457 53Z" fill="#fcca3a" stroke="#fcca3a"></path><path d="M589 365L633 310L572 322Z" fill="#ffffbb" stroke="#ffffbb"></path><path d="M617 296L675 256L600 254Z" fill="#fbd24c" stroke="#fbd24c"></path><path d="M623 377L641 308L633 310Z" fill="#fdf9ac" stroke="#fdf9ac"></path><path d="M633 310L641 308L617 296Z" fill="#fae06d" stroke="#fae06d"></path><path d="M403 450L412 450L414 363Z" fill="#fbd24c" stroke="#fbd24c"></path><path d="M477 406L492 450L485 402Z" fill="#fbed8d" stroke="#fbed8d"></path><path d="M520 398L537 450L563 386Z" fill="#fdf9ac" stroke="#fdf9ac"></path><path d="M320 423L403 450L414 363Z" fill="#fcf39c" stroke="#fcf39c"></path><path d="M320 423L414 363L303 346Z" fill="#fad95d" stroke="#fad95d"></path><path d="M412 450L492 450L477 406Z" fill="#fcca3a" stroke="#fcca3a"></path><path d="M607 431L623 377L589 365Z" fill="#ffba00" stroke="#ffba00"></path><path d="M492 450L493 450L485 402Z" fill="#ffffbb" stroke="#ffffbb"></path><path d="M276 450L320 423L225 407Z" fill="#fae77d" stroke="#fae77d"></path><path d="M346 11L262 101L320 142Z" fill="#fad95d" stroke="#fad95d"></path><path d="M206 294L224 317L261 304Z" fill="#ffba00" stroke="#ffba00"></path><path d="M346 11L320 142L404 69Z" fill="#ffba00" stroke="#ffba00"></path><path d="M262 101L236 143L268 173Z" fill="#ffba00" stroke="#ffba00"></path><path d="M224 317L240 344L261 304Z" fill="#fad95d" stroke="#fad95d"></path><path d="M261 304L240 344L284 308Z" fill="#fcf39c" stroke="#fcf39c"></path><path d="M202 227L261 304L268 173Z" fill="#fbed8d" stroke="#fbed8d"></path><path d="M607 431L589 365L563 386Z" fill="#fbed8d" stroke="#fbed8d"></path><path d="M589 365L623 377L633 310Z" fill="#fae06d" stroke="#fae06d"></path><path d="M403 450L371 459L412 450Z" fill="#fae06d" stroke="#fae06d"></path><path d="M412 450L371 459L492 450Z" fill="#fbd24c" stroke="#fbd24c"></path><path d="M492 450L649 493L493 450Z" fill="#fbed8d" stroke="#fbed8d"></path><path d="M320 423L371 459L403 450Z" fill="#fae77d" stroke="#fae77d"></path><path d="M649 493L534 450L493 450Z" fill="#fcca3a" stroke="#fcca3a"></path><path d="M493 450L534 450L520 398Z" fill="#fbed8d" stroke="#fbed8d"></path><path d="M649 493L537 450L534 450Z" fill="#ffba00" stroke="#ffba00"></path><path d="M534 450L537 450L520 398Z" fill="#fbed8d" stroke="#fbed8d"></path><path d="M675 256L617 296L676 287Z" fill="#fcf39c" stroke="#fcf39c"></path><path d="M675 256L673 209L600 254Z" fill="#fad95d" stroke="#fad95d"></path><path d="M525 0L521 5L532 2Z" fill="#fcf39c" stroke="#fcf39c"></path><path d="M676 287L617 296L641 308Z" fill="#fae77d" stroke="#fae77d"></path><path d="M486 0L451 0L457 53Z" fill="#ffffbb" stroke="#ffffbb"></path><path d="M443 46L424 0L404 69Z" fill="#fad95d" stroke="#fad95d"></path><path d="M451 0L424 0L443 46Z" fill="#fae77d" stroke="#fae77d"></path><path d="M236 143L202 227L268 173Z" fill="#fcca3a" stroke="#fcca3a"></path><path d="M521 5L486 0L521 74Z" fill="#fcca3a" stroke="#fcca3a"></path><path d="M521 5L521 74L536 59Z" fill="#fcca3a" stroke="#fcca3a"></path><path d="M202 227L206 294L261 304Z" fill="#fae77d" stroke="#fae77d"></path><path d="M202 413L225 407L240 344Z" fill="#fbed8d" stroke="#fbed8d"></path><path d="M691 313L676 287L641 308Z" fill="#ffffbb" stroke="#ffffbb"></path><path d="M276 450L313 442L320 423Z" fill="#fdc225" stroke="#fdc225"></path><path d="M320 423L325 450L371 459Z" fill="#fdc225" stroke="#fdc225"></path><path d="M713 167L675 180L673 209Z" fill="#fbd24c" stroke="#fbd24c"></path><path d="M673 209L675 180L611 149Z" fill="#fae06d" stroke="#fae06d"></path><path d="M692 234L673 209L675 256Z" fill="#fcf39c" stroke="#fcf39c"></path><path d="M313 442L325 450L320 423Z" fill="#fad95d" stroke="#fad95d"></path><path d="M372 -4L346 11L404 69Z" fill="#fbed8d" stroke="#fbed8d"></path><path d="M632 0L536 59L657 15Z" fill="#fdf9ac" stroke="#fdf9ac"></path><path d="M675 180L664 129L611 149Z" fill="#fae77d" stroke="#fae77d"></path><path d="M353 -8L372 -4L458 -55Z" fill="#fbed8d" stroke="#fbed8d"></path><path d="M424 0L372 -4L404 69Z" fill="#fdc225" stroke="#fdc225"></path><path d="M372 -4L424 0L458 -55Z" fill="#fdc225" stroke="#fdc225"></path><path d="M276 450L313 453L313 442Z" fill="#fcf39c" stroke="#fcf39c"></path><path d="M313 442L313 453L325 450Z" fill="#fbed8d" stroke="#fbed8d"></path><path d="M325 450L313 453L371 459Z" fill="#fbd24c" stroke="#fbd24c"></path><path d="M320 423L303 346L225 407Z" fill="#fcca3a" stroke="#fcca3a"></path><path d="M532 2L521 5L536 59Z" fill="#ffffbb" stroke="#ffffbb"></path><path d="M521 5L525 0L486 0Z" fill="#ffba00" stroke="#ffba00"></path><path d="M458 -55L424 0L451 0Z" fill="#ffffbb" stroke="#ffffbb"></path><path d="M537 -2L532 2L536 59Z" fill="#fcf39c" stroke="#fcf39c"></path><path d="M676 287L692 234L675 256Z" fill="#fbd24c" stroke="#fbd24c"></path><path d="M675 180L687 134L664 129Z" fill="#fbd24c" stroke="#fbd24c"></path><path d="M210 121L204 141L236 143Z" fill="#fbed8d" stroke="#fbed8d"></path><path d="M236 143L204 141L202 227Z" fill="#ffffbb" stroke="#ffffbb"></path><path d="M219 106L236 143L262 101Z" fill="#ffffbb" stroke="#ffffbb"></path><path d="M346 11L252 63L262 101Z" fill="#fdc225" stroke="#fdc225"></path><path d="M321 0L252 63L346 11Z" fill="#ffba00" stroke="#ffba00"></path><path d="M595 450L607 431L563 386Z" fill="#fcf39c" stroke="#fcf39c"></path><path d="M623 377L691 313L641 308Z" fill="#fae77d" stroke="#fae77d"></path><path d="M216 102L219 106L262 101Z" fill="#fad95d" stroke="#fad95d"></path><path d="M219 106L210 121L236 143Z" fill="#ffffbb" stroke="#ffffbb"></path><path d="M632 0L537 -2L536 59Z" fill="#fad95d" stroke="#fad95d"></path><path d="M532 2L537 -2L525 0Z" fill="#fdf9ac" stroke="#fdf9ac"></path><path d="M525 0L532 -13L486 0Z" fill="#fae06d" stroke="#fae06d"></path><path d="M458 -55L451 0L486 0Z" fill="#fbed8d" stroke="#fbed8d"></path><path d="M372 -4L353 -8L346 11Z" fill="#fcf39c" stroke="#fcf39c"></path><path d="M252 63L216 102L262 101Z" fill="#fad95d" stroke="#fad95d"></path><path d="M219 106L216 102L210 121Z" fill="#ffba00" stroke="#ffba00"></path><path d="M648 409L691 313L623 377Z" fill="#fae77d" stroke="#fae77d"></path><path d="M766 296L760 232L692 234Z" fill="#fae77d" stroke="#fae77d"></path><path d="M537 450L595 450L563 386Z" fill="#fdc225" stroke="#fdc225"></path><path d="M607 431L648 409L623 377Z" fill="#fad95d" stroke="#fad95d"></path><path d="M649 493L595 450L537 450Z" fill="#fcca3a" stroke="#fcca3a"></path><path d="M353 -8L321 0L346 11Z" fill="#fcf39c" stroke="#fcf39c"></path><path d="M216 102L197 130L210 121Z" fill="#fdf9ac" stroke="#fdf9ac"></path><path d="M210 121L197 130L204 141Z" fill="#fbed8d" stroke="#fbed8d"></path><path d="M204 141L181 148L202 227Z" fill="#fcf39c" stroke="#fcf39c"></path><path d="M632 0L532 -13L537 -2Z" fill="#fae06d" stroke="#fae06d"></path><path d="M537 -2L532 -13L525 0Z" fill="#fae06d" stroke="#fae06d"></path><path d="M713 167L687 134L675 180Z" fill="#ffffbb" stroke="#ffffbb"></path><path d="M657 15L536 59L611 149Z" fill="#fae06d" stroke="#fae06d"></path><path d="M225 407L303 346L240 344Z" fill="#fcca3a" stroke="#fcca3a"></path><path d="M313 453L200 450L371 459Z" fill="#fcf39c" stroke="#fcf39c"></path><path d="M617 446L648 409L607 431Z" fill="#fae77d" stroke="#fae77d"></path><path d="M202 227L170 262L206 294Z" fill="#fcf39c" stroke="#fcf39c"></path><path d="M165 335L240 344L224 317Z" fill="#fcf39c" stroke="#fcf39c"></path><path d="M140 183L170 262L202 227Z" fill="#ffffbb" stroke="#ffffbb"></path><path d="M158 166L181 148L147 139Z" fill="#ffffbb" stroke="#ffffbb"></path><path d="M197 130L181 148L204 141Z" fill="#fcf39c" stroke="#fcf39c"></path><path d="M595 450L617 446L607 431Z" fill="#fad95d" stroke="#fad95d"></path><path d="M175 320L224 317L206 294Z" fill="#fcf39c" stroke="#fcf39c"></path><path d="M225 407L267 450L276 450Z" fill="#fad95d" stroke="#fad95d"></path><path d="M276 450L267 450L313 453Z" fill="#ffba00" stroke="#ffba00"></path><path d="M151 283L175 320L206 294Z" fill="#fcf39c" stroke="#fcf39c"></path><path d="M721 164L713 167L751 212Z" fill="#ffba00" stroke="#ffba00"></path><path d="M692 234L713 167L673 209Z" fill="#fcf39c" stroke="#fcf39c"></path><path d="M252 63L237 41L216 102Z" fill="#fae77d" stroke="#fae77d"></path><path d="M163 81L147 139L197 130Z" fill="#fcca3a" stroke="#fcca3a"></path><path d="M239 25L237 41L252 63Z" fill="#fcf39c" stroke="#fcf39c"></path><path d="M722 151L699 119L687 134Z" fill="#fbed8d" stroke="#fbed8d"></path><path d="M687 134L699 119L664 129Z" fill="#fcf39c" stroke="#fcf39c"></path><path d="M741 221L713 167L692 234Z" fill="#fcca3a" stroke="#fcca3a"></path><path d="M713 167L722 151L687 134Z" fill="#ffffbb" stroke="#ffffbb"></path><path d="M147 139L181 148L197 130Z" fill="#fbed8d" stroke="#fbed8d"></path><path d="M181 148L158 166L202 227Z" fill="#fad95d" stroke="#fad95d"></path><path d="M152 332L165 335L175 320Z" fill="#fbd24c" stroke="#fbd24c"></path><path d="M267 0L239 25L252 63Z" fill="#ffba00" stroke="#ffba00"></path><path d="M163 81L197 130L216 102Z" fill="#ffffbb" stroke="#ffffbb"></path><path d="M532 -13L458 -55L486 0Z" fill="#fae06d" stroke="#fae06d"></path><path d="M353 -8L267 0L321 0Z" fill="#fbd24c" stroke="#fbd24c"></path><path d="M321 0L267 0L252 63Z" fill="#fcf39c" stroke="#fcf39c"></path><path d="M175 320L165 335L224 317Z" fill="#fbd24c" stroke="#fbd24c"></path><path d="M151 283L206 294L170 262Z" fill="#fcca3a" stroke="#fcca3a"></path><path d="M97 226L151 283L170 262Z" fill="#ffffbb" stroke="#ffffbb"></path><path d="M458 -55L267 0L353 -8Z" fill="#fdf9ac" stroke="#fdf9ac"></path><path d="M721 164L722 151L713 167Z" fill="#ffffbb" stroke="#ffffbb"></path><path d="M165 335L202 413L240 344Z" fill="#fdf9ac" stroke="#fdf9ac"></path><path d="M225 407L200 450L267 450Z" fill="#fdf9ac" stroke="#fdf9ac"></path><path d="M458 -55L258 0L267 0Z" fill="#fae77d" stroke="#fae77d"></path><path d="M267 0L258 0L239 25Z" fill="#ffba00" stroke="#ffba00"></path><path d="M760 232L741 221L692 234Z" fill="#fcca3a" stroke="#fcca3a"></path><path d="M721 164L743 133L722 151Z" fill="#fae77d" stroke="#fae77d"></path><path d="M751 212L741 221L760 232Z" fill="#fdc225" stroke="#fdc225"></path><path d="M458 -55L250 0L258 0Z" fill="#fae77d" stroke="#fae77d"></path><path d="M258 0L250 0L239 25Z" fill="#fbd24c" stroke="#fbd24c"></path><path d="M147 139L140 183L158 166Z" fill="#fbd24c" stroke="#fbd24c"></path><path d="M147 319L152 332L175 320Z" fill="#fae77d" stroke="#fae77d"></path><path d="M165 335L118 398L202 413Z" fill="#fcca3a" stroke="#fcca3a"></path><path d="M140 292L147 319L151 283Z" fill="#fdc225" stroke="#fdc225"></path><path d="M151 283L147 319L175 320Z" fill="#fbd24c" stroke="#fbd24c"></path><path d="M657 15L611 149L664 129Z" fill="#fbed8d" stroke="#fbed8d"></path><path d="M532 -13L632 0L458 -55Z" fill="#ffffbb" stroke="#ffffbb"></path><path d="M657 15L664 129L699 119Z" fill="#ffba00" stroke="#ffba00"></path><path d="M216 102L193 33L163 81Z" fill="#fcca3a" stroke="#fcca3a"></path><path d="M158 166L140 183L202 227Z" fill="#ffba00" stroke="#ffba00"></path><path d="M97 226L140 292L151 283Z" fill="#fad95d" stroke="#fad95d"></path><path d="M216 102L237 41L193 33Z" fill="#fcf39c" stroke="#fcf39c"></path><path d="M748 0L657 15L699 119Z" fill="#fcf39c" stroke="#fcf39c"></path><path d="M741 221L751 212L713 167Z" fill="#ffba00" stroke="#ffba00"></path><path d="M692 234L676 287L766 296Z" fill="#ffffbb" stroke="#ffffbb"></path><path d="M744 390L691 313L648 409Z" fill="#fbed8d" stroke="#fbed8d"></path><path d="M744 390L738 333L691 313Z" fill="#ffffbb" stroke="#ffffbb"></path><path d="M193 33L237 41L239 25Z" fill="#fcca3a" stroke="#fcca3a"></path><path d="M114 315L128 307L104 309Z" fill="#fdf9ac" stroke="#fdf9ac"></path><path d="M140 292L128 307L147 319Z" fill="#fdf9ac" stroke="#fdf9ac"></path><path d="M147 319L114 315L152 332Z" fill="#fdc225" stroke="#fdc225"></path><path d="M118 398L200 450L202 413Z" fill="#ffba00" stroke="#ffba00"></path><path d="M766 296L676 287L691 313Z" fill="#fad95d" stroke="#fad95d"></path><path d="M203 0L193 33L239 25Z" fill="#fcf39c" stroke="#fcf39c"></path><path d="M781 198L721 164L751 212Z" fill="#ffffbb" stroke="#ffffbb"></path><path d="M781 198L743 133L721 164Z" fill="#fad95d" stroke="#fad95d"></path><path d="M722 151L743 133L699 119Z" fill="#fcf39c" stroke="#fcf39c"></path><path d="M748 0L657 0L657 15Z" fill="#fae77d" stroke="#fae77d"></path><path d="M657 15L657 0L632 0Z" fill="#fbd24c" stroke="#fbd24c"></path><path d="M632 0L657 0L458 -55Z" fill="#fae77d" stroke="#fae77d"></path><path d="M118 398L165 335L152 332Z" fill="#fae06d" stroke="#fae06d"></path><path d="M202 413L200 450L225 407Z" fill="#ffba00" stroke="#ffba00"></path><path d="M267 450L200 450L313 453Z" fill="#fcca3a" stroke="#fcca3a"></path><path d="M649 493L680 452L617 446Z" fill="#ffba00" stroke="#ffba00"></path><path d="M617 446L680 452L648 409Z" fill="#ffffbb" stroke="#ffffbb"></path><path d="M649 493L617 446L595 450Z" fill="#fae06d" stroke="#fae06d"></path><path d="M802 237L767 220L760 232Z" fill="#fbed8d" stroke="#fbed8d"></path><path d="M760 232L767 220L751 212Z" fill="#fbed8d" stroke="#fbed8d"></path><path d="M91 450L649 493L371 459Z" fill="#ffba00" stroke="#ffba00"></path><path d="M371 459L649 493L492 450Z" fill="#ffba00" stroke="#ffba00"></path><path d="M780 368L766 296L738 333Z" fill="#fcca3a" stroke="#fcca3a"></path><path d="M738 333L766 296L691 313Z" fill="#fcf39c" stroke="#fcf39c"></path><path d="M250 0L203 0L239 25Z" fill="#fae06d" stroke="#fae06d"></path><path d="M139 40L127 82L163 81Z" fill="#ffba00" stroke="#ffba00"></path><path d="M458 -55L203 0L250 0Z" fill="#fbd24c" stroke="#fbd24c"></path><path d="M104 309L128 307L140 292Z" fill="#fae77d" stroke="#fae77d"></path><path d="M128 307L114 315L147 319Z" fill="#ffffbb" stroke="#ffffbb"></path><path d="M97 226L170 262L140 183Z" fill="#fcca3a" stroke="#fcca3a"></path><path d="M705 450L721 424L680 452Z" fill="#fae06d" stroke="#fae06d"></path><path d="M680 452L721 424L648 409Z" fill="#fad95d" stroke="#fad95d"></path><path d="M649 493L705 450L680 452Z" fill="#fbd24c" stroke="#fbd24c"></path><path d="M774 450L744 390L721 424Z" fill="#ffffbb" stroke="#ffffbb"></path><path d="M721 424L744 390L648 409Z" fill="#fdf9ac" stroke="#fdf9ac"></path><path d="M802 237L781 198L767 220Z" fill="#fad95d" stroke="#fad95d"></path><path d="M767 220L781 198L751 212Z" fill="#fdf9ac" stroke="#fdf9ac"></path><path d="M114 115L140 183L147 139Z" fill="#fad95d" stroke="#fad95d"></path><path d="M89 223L97 226L140 183Z" fill="#fdf9ac" stroke="#fdf9ac"></path><path d="M203 0L191 0L193 33Z" fill="#fbd24c" stroke="#fbd24c"></path><path d="M127 82L114 115L147 139Z" fill="#fbd24c" stroke="#fbd24c"></path><path d="M81 -12L191 0L203 0Z" fill="#ffba00" stroke="#ffba00"></path><path d="M76 281L104 309L140 292Z" fill="#fae77d" stroke="#fae77d"></path><path d="M101 372L118 398L152 332Z" fill="#fad95d" stroke="#fad95d"></path><path d="M127 82L147 139L163 81Z" fill="#ffffbb" stroke="#ffffbb"></path><path d="M139 40L163 81L193 33Z" fill="#fbed8d" stroke="#fbed8d"></path><path d="M127 82L113 110L114 115Z" fill="#fdf9ac" stroke="#fdf9ac"></path><path d="M114 115L89 223L140 183Z" fill="#fae06d" stroke="#fae06d"></path><path d="M70 107L89 223L114 115Z" fill="#ffffbb" stroke="#ffffbb"></path><path d="M97 226L76 281L140 292Z" fill="#fbd24c" stroke="#fbd24c"></path><path d="M649 493L724 450L705 450Z" fill="#fbd24c" stroke="#fbd24c"></path><path d="M705 450L724 450L721 424Z" fill="#fbed8d" stroke="#fbed8d"></path><path d="M787 131L769 97L743 133Z" fill="#fae06d" stroke="#fae06d"></path><path d="M743 133L769 97L699 119Z" fill="#fdf9ac" stroke="#fdf9ac"></path><path d="M127 82L70 107L113 110Z" fill="#fcf39c" stroke="#fcf39c"></path><path d="M191 0L139 40L193 33Z" fill="#fae77d" stroke="#fae77d"></path><path d="M101 372L152 332L114 315Z" fill="#fdf9ac" stroke="#fdf9ac"></path><path d="M101 372L114 315L104 309Z" fill="#ffffbb" stroke="#ffffbb"></path><path d="M845 262L802 237L766 296Z" fill="#fdf9ac" stroke="#fdf9ac"></path><path d="M766 296L802 237L760 232Z" fill="#fad95d" stroke="#fad95d"></path><path d="M781 198L787 131L743 133Z" fill="#fdf9ac" stroke="#fdf9ac"></path><path d="M780 368L738 333L744 390Z" fill="#fae06d" stroke="#fae06d"></path><path d="M823 145L787 131L781 198Z" fill="#fbed8d" stroke="#fbed8d"></path><path d="M789 377L780 368L744 390Z" fill="#fbed8d" stroke="#fbed8d"></path><path d="M75 377L101 372L104 309Z" fill="#fbd24c" stroke="#fbd24c"></path><path d="M50 281L76 281L89 223Z" fill="#ffba00" stroke="#ffba00"></path><path d="M89 223L76 281L97 226Z" fill="#ffffbb" stroke="#ffffbb"></path><path d="M774 450L789 377L744 390Z" fill="#ffba00" stroke="#ffba00"></path><path d="M837 350L845 262L766 296Z" fill="#fcf39c" stroke="#fcf39c"></path><path d="M787 131L796 87L769 97Z" fill="#fad95d" stroke="#fad95d"></path><path d="M776 34L748 0L699 119Z" fill="#fad95d" stroke="#fad95d"></path><path d="M823 145L796 87L787 131Z" fill="#fdf9ac" stroke="#fdf9ac"></path><path d="M776 34L699 119L769 97Z" fill="#ffffbb" stroke="#ffffbb"></path><path d="M657 0L747 -10L458 -55Z" fill="#fdf9ac" stroke="#fdf9ac"></path><path d="M50 281L75 377L104 309Z" fill="#fdc225" stroke="#fdc225"></path><path d="M101 372L75 377L118 398Z" fill="#fae06d" stroke="#fae06d"></path><path d="M118 398L91 450L200 450Z" fill="#ffba00" stroke="#ffba00"></path><path d="M88 0L70 107L127 82Z" fill="#fae77d" stroke="#fae77d"></path><path d="M113 110L70 107L114 115Z" fill="#fcca3a" stroke="#fcca3a"></path><path d="M76 281L50 281L104 309Z" fill="#fdc225" stroke="#fdc225"></path><path d="M796 87L776 34L769 97Z" fill="#fcca3a" stroke="#fcca3a"></path><path d="M8 242L50 281L89 223Z" fill="#fcca3a" stroke="#fcca3a"></path><path d="M768 0L747 -10L748 0Z" fill="#fad95d" stroke="#fad95d"></path><path d="M748 0L747 -10L657 0Z" fill="#fdc225" stroke="#fdc225"></path><path d="M844 154L781 198L802 237Z" fill="#fae77d" stroke="#fae77d"></path><path d="M844 154L823 145L781 198Z" fill="#fad95d" stroke="#fad95d"></path><path d="M770 0L768 0L785 20Z" fill="#fbd24c" stroke="#fbd24c"></path><path d="M724 450L774 450L721 424Z" fill="#fcf39c" stroke="#fcf39c"></path><path d="M822 480L774 450L724 450Z" fill="#fbd24c" stroke="#fbd24c"></path><path d="M768 0L776 34L785 20Z" fill="#fdf9ac" stroke="#fdf9ac"></path><path d="M776 34L768 0L748 0Z" fill="#fbd24c" stroke="#fbd24c"></path><path d="M837 350L780 368L789 377Z" fill="#fbed8d" stroke="#fbed8d"></path><path d="M837 350L766 296L780 368Z" fill="#fcf39c" stroke="#fcf39c"></path><path d="M785 20L776 34L818 44Z" fill="#ffba00" stroke="#ffba00"></path><path d="M768 0L770 0L747 -10Z" fill="#fad95d" stroke="#fad95d"></path><path d="M818 44L776 34L796 87Z" fill="#fbed8d" stroke="#fbed8d"></path><path d="M76 450L91 450L75 377Z" fill="#ffba00" stroke="#ffba00"></path><path d="M75 377L91 450L118 398Z" fill="#fcf39c" stroke="#fcf39c"></path><path d="M200 450L91 450L371 459Z" fill="#fae77d" stroke="#fae77d"></path><path d="M871 235L844 154L802 237Z" fill="#fae77d" stroke="#fae77d"></path><path d="M823 145L847 66L796 87Z" fill="#fcf39c" stroke="#fcf39c"></path><path d="M827 435L837 350L789 377Z" fill="#fcca3a" stroke="#fcca3a"></path><path d="M32 450L76 450L75 377Z" fill="#fad95d" stroke="#fad95d"></path><path d="M91 450L76 450L649 493Z" fill="#fae77d" stroke="#fae77d"></path><path d="M139 40L89 0L127 82Z" fill="#fad95d" stroke="#fad95d"></path><path d="M191 0L89 0L139 40Z" fill="#fcca3a" stroke="#fcca3a"></path><path d="M81 -12L89 0L191 0Z" fill="#fcf39c" stroke="#fcf39c"></path><path d="M81 -12L88 0L89 0Z" fill="#ffba00" stroke="#ffba00"></path><path d="M89 0L88 0L127 82Z" fill="#ffba00" stroke="#ffba00"></path><path d="M847 66L818 44L796 87Z" fill="#ffba00" stroke="#ffba00"></path><path d="M785 20L799 0L770 0Z" fill="#fdc225" stroke="#fdc225"></path><path d="M818 44L799 0L785 20Z" fill="#ffba00" stroke="#ffba00"></path><path d="M770 0L799 0L747 -10Z" fill="#fcf39c" stroke="#fcf39c"></path><path d="M845 262L871 235L802 237Z" fill="#ffba00" stroke="#ffba00"></path><path d="M844 154L847 66L823 145Z" fill="#fcf39c" stroke="#fcf39c"></path><path d="M900 234L871 235L900 265Z" fill="#fdc225" stroke="#fdc225"></path><path d="M6 177L8 242L89 223Z" fill="#ffba00" stroke="#ffba00"></path><path d="M50 281L0 358L75 377Z" fill="#ffffbb" stroke="#ffffbb"></path><path d="M6 177L89 223L70 107Z" fill="#fcca3a" stroke="#fcca3a"></path><path d="M832 450L827 435L774 450Z" fill="#fcf39c" stroke="#fcf39c"></path><path d="M774 450L827 435L789 377Z" fill="#fdc225" stroke="#fdc225"></path><path d="M900 234L894 201L871 235Z" fill="#fcf39c" stroke="#fcf39c"></path><path d="M458 -55L81 -12L203 0Z" fill="#fdf9ac" stroke="#fdf9ac"></path><path d="M88 0L24 54L70 107Z" fill="#fcf39c" stroke="#fcf39c"></path><path d="M0 180L6 177L0 175Z" fill="#fae77d" stroke="#fae77d"></path><path d="M900 102L847 66L844 154Z" fill="#fbd24c" stroke="#fbd24c"></path><path d="M818 44L857 -9L799 0Z" fill="#fae06d" stroke="#fae06d"></path><path d="M-8 188L0 275L8 242Z" fill="#fdc225" stroke="#fdc225"></path><path d="M8 242L0 275L50 281Z" fill="#fcf39c" stroke="#fcf39c"></path><path d="M0 175L6 177L0 158Z" fill="#fdc225" stroke="#fdc225"></path><path d="M6 177L-8 188L8 242Z" fill="#fdf9ac" stroke="#fdf9ac"></path><path d="M0 158L6 177L70 107Z" fill="#fdf9ac" stroke="#fdf9ac"></path><path d="M822 480L832 450L774 450Z" fill="#fbed8d" stroke="#fbed8d"></path><path d="M921 378L900 303L837 350Z" fill="#fdc225" stroke="#fdc225"></path><path d="M0 117L0 158L70 107Z" fill="#fcca3a" stroke="#fcca3a"></path><path d="M0 158L-8 188L0 175Z" fill="#fdf9ac" stroke="#fdf9ac"></path><path d="M0 175L-8 188L0 180Z" fill="#fae77d" stroke="#fae77d"></path><path d="M0 180L-8 188L6 177Z" fill="#fbd24c" stroke="#fbd24c"></path><path d="M649 493L822 480L724 450Z" fill="#fdf9ac" stroke="#fdf9ac"></path><path d="M81 -12L24 54L88 0Z" fill="#fad95d" stroke="#fad95d"></path><path d="M0 158L0 117L-8 188Z" fill="#fbd24c" stroke="#fbd24c"></path><path d="M871 235L845 262L900 265Z" fill="#fcca3a" stroke="#fcca3a"></path><path d="M871 235L894 201L844 154Z" fill="#fcca3a" stroke="#fcca3a"></path><path d="M0 83L0 117L70 107Z" fill="#fad95d" stroke="#fad95d"></path><path d="M-31 378L0 358L0 275Z" fill="#fbd24c" stroke="#fbd24c"></path><path d="M0 275L0 358L50 281Z" fill="#fad95d" stroke="#fad95d"></path><path d="M900 265L845 262L900 303Z" fill="#ffba00" stroke="#ffba00"></path><path d="M-31 378L0 371L0 358Z" fill="#fbd24c" stroke="#fbd24c"></path><path d="M0 358L0 371L75 377Z" fill="#fae77d" stroke="#fae77d"></path><path d="M0 371L32 450L75 377Z" fill="#fbd24c" stroke="#fbd24c"></path><path d="M76 450L32 450L649 493Z" fill="#ffffbb" stroke="#ffffbb"></path><path d="M837 350L827 435L880 429Z" fill="#fae77d" stroke="#fae77d"></path><path d="M900 303L845 262L837 350Z" fill="#fae06d" stroke="#fae06d"></path><path d="M880 429L827 435L832 450Z" fill="#fbd24c" stroke="#fbd24c"></path><path d="M918 195L900 164L894 201Z" fill="#fdf9ac" stroke="#fdf9ac"></path><path d="M894 201L900 164L844 154Z" fill="#fdf9ac" stroke="#fdf9ac"></path><path d="M24 54L0 83L70 107Z" fill="#fdc225" stroke="#fdc225"></path><path d="M0 117L0 83L-8 188Z" fill="#fae77d" stroke="#fae77d"></path><path d="M900 164L900 126L844 154Z" fill="#ffffbb" stroke="#ffffbb"></path><path d="M847 66L857 -9L818 44Z" fill="#ffffbb" stroke="#ffffbb"></path><path d="M900 126L900 102L844 154Z" fill="#ffffbb" stroke="#ffffbb"></path><path d="M900 164L918 195L900 126Z" fill="#ffffbb" stroke="#ffffbb"></path><path d="M900 126L918 195L900 102Z" fill="#fad95d" stroke="#fad95d"></path><path d="M900 234L918 195L894 201Z" fill="#fae77d" stroke="#fae77d"></path><path d="M900 265L918 195L900 234Z" fill="#fbed8d" stroke="#fbed8d"></path><path d="M921 378L918 195L900 265Z" fill="#fae06d" stroke="#fae06d"></path><path d="M899 450L880 429L832 450Z" fill="#fdc225" stroke="#fdc225"></path><path d="M900 303L921 378L900 265Z" fill="#fad95d" stroke="#fad95d"></path><path d="M882 0L857 -9L847 66Z" fill="#fcf39c" stroke="#fcf39c"></path><path d="M799 0L857 -9L747 -10Z" fill="#fae06d" stroke="#fae06d"></path><path d="M747 -10L857 -9L458 -55Z" fill="#ffffbb" stroke="#ffffbb"></path><path d="M0 371L0 449L32 450Z" fill="#fbd24c" stroke="#fbd24c"></path><path d="M32 450L0 450L649 493Z" fill="#fdf9ac" stroke="#fdf9ac"></path><path d="M-31 378L0 449L0 371Z" fill="#fbed8d" stroke="#fbed8d"></path><path d="M-31 378L0 450L0 449Z" fill="#fae06d" stroke="#fae06d"></path><path d="M0 449L0 450L32 450Z" fill="#fbd24c" stroke="#fbd24c"></path><path d="M880 429L900 404L837 350Z" fill="#fae77d" stroke="#fae77d"></path><path d="M0 0L-31 378L-8 188Z" fill="#ffffbb" stroke="#ffffbb"></path><path d="M-8 188L-31 378L0 275Z" fill="#fdf9ac" stroke="#fdf9ac"></path><path d="M24 54L0 0L0 83Z" fill="#fdf9ac" stroke="#fdf9ac"></path><path d="M0 83L0 0L-8 188Z" fill="#fdf9ac" stroke="#fdf9ac"></path><path d="M81 -12L0 0L24 54Z" fill="#fcca3a" stroke="#fcca3a"></path><path d="M900 15L882 0L847 66Z" fill="#fad95d" stroke="#fad95d"></path><path d="M900 15L847 66L900 102Z" fill="#fbd24c" stroke="#fbd24c"></path><path d="M904 453L921 378L900 404Z" fill="#ffffbb" stroke="#ffffbb"></path><path d="M900 404L921 378L837 350Z" fill="#fcf39c" stroke="#fcf39c"></path><path d="M822 480L899 450L832 450Z" fill="#fae06d" stroke="#fae06d"></path><path d="M880 429L900 450L900 404Z" fill="#fdc225" stroke="#fdc225"></path><path d="M904 453L900 450L899 450Z" fill="#fcf39c" stroke="#fcf39c"></path><path d="M899 450L900 450L880 429Z" fill="#fbed8d" stroke="#fbed8d"></path><path d="M918 195L900 15L900 102Z" fill="#fcf39c" stroke="#fcf39c"></path><path d="M822 480L904 453L899 450Z" fill="#fad95d" stroke="#fad95d"></path><path d="M900 450L904 453L900 404Z" fill="#fbed8d" stroke="#fbed8d"></path><path d="M918 195L900 0L900 15Z" fill="#fdc225" stroke="#fdc225"></path><path d="M900 15L900 0L882 0Z" fill="#fdf9ac" stroke="#fdf9ac"></path><path d="M882 0L900 0L857 -9Z" fill="#ffffbb" stroke="#ffffbb"></path></g></svg>