<svg id="visual" viewBox="0 0 200 1900" width="200" height="1900" xmlns="http://www.w3.org/2000/svg" xmlns:xlink="http://www.w3.org/1999/xlink" version="1.1"><path d="M114 1900L115.7 1884.2C117.3 1868.3 120.7 1836.7 126.2 1805C131.7 1773.3 139.3 1741.7 136.8 1710C134.3 1678.3 121.7 1646.7 117 1615C112.3 1583.3 115.7 1551.7 122 1520C128.3 1488.3 137.7 1456.7 140.7 1425C143.7 1393.3 140.3 1361.7 133.8 1330C127.3 1298.3 117.7 1266.7 114 1235C110.3 1203.3 112.7 1171.7 118.2 1140C123.7 1108.3 132.3 1076.7 132.2 1045C132 1013.3 123 981.7 116.8 950C110.7 918.3 107.3 886.7 109 855C110.7 823.3 117.3 791.7 119.7 760C122 728.3 120 696.7 118.2 665C116.3 633.3 114.7 601.7 115.3 570C116 538.3 119 506.7 117 475C115 443.3 108 411.7 106.5 380C105 348.3 109 316.7 115.8 285C122.7 253.3 132.3 221.7 134.3 190C136.3 158.3 130.7 126.7 129.2 95C127.7 63.3 130.3 31.7 131.7 15.8L133 0L200 0L200 15.8C200 31.7 200 63.3 200 95C200 126.7 200 158.3 200 190C200 221.7 200 253.3 200 285C200 316.7 200 348.3 200 380C200 411.7 200 443.3 200 475C200 506.7 200 538.3 200 570C200 601.7 200 633.3 200 665C200 696.7 200 728.3 200 760C200 791.7 200 823.3 200 855C200 886.7 200 918.3 200 950C200 981.7 200 1013.3 200 1045C200 1076.7 200 1108.3 200 1140C200 1171.7 200 1203.3 200 1235C200 1266.7 200 1298.3 200 1330C200 1361.7 200 1393.3 200 1425C200 1456.7 200 1488.3 200 1520C200 1551.7 200 1583.3 200 1615C200 1646.7 200 1678.3 200 1710C200 1741.7 200 1773.3 200 1805C200 1836.7 200 1868.3 200 1884.2L200 1900Z" fill="#f6f696"></path><path d="M114 1900L119.5 1884.2C125 1868.3 136 1836.7 136 1805C136 1773.3 125 1741.7 120.8 1710C116.7 1678.3 119.3 1646.7 124.3 1615C129.3 1583.3 136.7 1551.7 135.8 1520C135 1488.3 126 1456.7 128 1425C130 1393.3 143 1361.7 143.3 1330C143.7 1298.3 131.3 1266.7 128.5 1235C125.7 1203.3 132.3 1171.7 136.5 1140C140.7 1108.3 142.3 1076.7 141.5 1045C140.7 1013.3 137.3 981.7 135 950C132.7 918.3 131.3 886.7 129.8 855C128.3 823.3 126.7 791.7 124 760C121.3 728.3 117.7 696.7 119.8 665C122 633.3 130 601.7 134.7 570C139.3 538.3 140.7 506.7 137.8 475C135 443.3 128 411.7 123.5 380C119 348.3 117 316.7 121.5 285C126 253.3 137 221.7 141 190C145 158.3 142 126.7 138 95C134 63.3 129 31.7 126.5 15.8L124 0L200 0L200 15.8C200 31.7 200 63.3 200 95C200 126.7 200 158.3 200 190C200 221.7 200 253.3 200 285C200 316.7 200 348.3 200 380C200 411.7 200 443.3 200 475C200 506.7 200 538.3 200 570C200 601.7 200 633.3 200 665C200 696.7 200 728.3 200 760C200 791.7 200 823.3 200 855C200 886.7 200 918.3 200 950C200 981.7 200 1013.3 200 1045C200 1076.7 200 1108.3 200 1140C200 1171.7 200 1203.3 200 1235C200 1266.7 200 1298.3 200 1330C200 1361.7 200 1393.3 200 1425C200 1456.7 200 1488.3 200 1520C200 1551.7 200 1583.3 200 1615C200 1646.7 200 1678.3 200 1710C200 1741.7 200 1773.3 200 1805C200 1836.7 200 1868.3 200 1884.2L200 1900Z" fill="#f6f18a"></path><path d="M137 1900L137.5 1884.2C138 1868.3 139 1836.7 139 1805C139 1773.3 138 1741.7 141.5 1710C145 1678.3 153 1646.7 154.2 1615C155.3 1583.3 149.7 1551.7 149.5 1520C149.3 1488.3 154.7 1456.7 154.2 1425C153.7 1393.3 147.3 1361.7 142.8 1330C138.3 1298.3 135.7 1266.7 132.7 1235C129.7 1203.3 126.3 1171.7 127.8 1140C129.3 1108.3 135.7 1076.7 137.3 1045C139 1013.3 136 981.7 132.5 950C129 918.3 125 886.7 122.7 855C120.3 823.3 119.7 791.7 124 760C128.3 728.3 137.7 696.7 141.8 665C146 633.3 145 601.7 141 570C137 538.3 130 506.7 130.5 475C131 443.3 139 411.7 140.2 380C141.3 348.3 135.7 316.7 135 285C134.3 253.3 138.7 221.7 143.8 190C149 158.3 155 126.7 155.3 95C155.7 63.3 150.3 31.7 147.7 15.8L145 0L200 0L200 15.8C200 31.7 200 63.3 200 95C200 126.7 200 158.3 200 190C200 221.7 200 253.3 200 285C200 316.7 200 348.3 200 380C200 411.7 200 443.3 200 475C200 506.7 200 538.3 200 570C200 601.7 200 633.3 200 665C200 696.7 200 728.3 200 760C200 791.7 200 823.3 200 855C200 886.7 200 918.3 200 950C200 981.7 200 1013.3 200 1045C200 1076.7 200 1108.3 200 1140C200 1171.7 200 1203.3 200 1235C200 1266.7 200 1298.3 200 1330C200 1361.7 200 1393.3 200 1425C200 1456.7 200 1488.3 200 1520C200 1551.7 200 1583.3 200 1615C200 1646.7 200 1678.3 200 1710C200 1741.7 200 1773.3 200 1805C200 1836.7 200 1868.3 200 1884.2L200 1900Z" fill="#f6eb7d"></path><path d="M152 1900L150.8 1884.2C149.7 1868.3 147.3 1836.7 148.3 1805C149.3 1773.3 153.7 1741.7 155.5 1710C157.3 1678.3 156.7 1646.7 157.8 1615C159 1583.3 162 1551.7 162.8 1520C163.7 1488.3 162.3 1456.7 162 1425C161.7 1393.3 162.3 1361.7 159.3 1330C156.3 1298.3 149.7 1266.7 146.8 1235C144 1203.3 145 1171.7 146.8 1140C148.7 1108.3 151.3 1076.7 153 1045C154.7 1013.3 155.3 981.7 155.7 950C156 918.3 156 886.7 152 855C148 823.3 140 791.7 141.3 760C142.7 728.3 153.3 696.7 153.8 665C154.3 633.3 144.7 601.7 142.7 570C140.7 538.3 146.3 506.7 145 475C143.7 443.3 135.3 411.7 133.5 380C131.7 348.3 136.3 316.7 140.7 285C145 253.3 149 221.7 148 190C147 158.3 141 126.7 139.8 95C138.7 63.3 142.3 31.7 144.2 15.8L146 0L200 0L200 15.8C200 31.7 200 63.3 200 95C200 126.7 200 158.3 200 190C200 221.7 200 253.3 200 285C200 316.7 200 348.3 200 380C200 411.7 200 443.3 200 475C200 506.7 200 538.3 200 570C200 601.7 200 633.3 200 665C200 696.7 200 728.3 200 760C200 791.7 200 823.3 200 855C200 886.7 200 918.3 200 950C200 981.7 200 1013.3 200 1045C200 1076.7 200 1108.3 200 1140C200 1171.7 200 1203.3 200 1235C200 1266.7 200 1298.3 200 1330C200 1361.7 200 1393.3 200 1425C200 1456.7 200 1488.3 200 1520C200 1551.7 200 1583.3 200 1615C200 1646.7 200 1678.3 200 1710C200 1741.7 200 1773.3 200 1805C200 1836.7 200 1868.3 200 1884.2L200 1900Z" fill="#f6e671"></path><path d="M149 1900L151.3 1884.2C153.7 1868.3 158.3 1836.7 160.8 1805C163.3 1773.3 163.7 1741.7 163.3 1710C163 1678.3 162 1646.7 160.3 1615C158.7 1583.3 156.3 1551.7 156.2 1520C156 1488.3 158 1456.7 157.7 1425C157.3 1393.3 154.7 1361.7 155.2 1330C155.7 1298.3 159.3 1266.7 157.3 1235C155.3 1203.3 147.7 1171.7 149 1140C150.3 1108.3 160.7 1076.7 164 1045C167.3 1013.3 163.7 981.7 160.3 950C157 918.3 154 886.7 154.8 855C155.7 823.3 160.3 791.7 160 760C159.7 728.3 154.3 696.7 154.5 665C154.7 633.3 160.3 601.7 158.2 570C156 538.3 146 506.7 141.7 475C137.3 443.3 138.7 411.7 139.5 380C140.3 348.3 140.7 316.7 145.5 285C150.3 253.3 159.7 221.7 160.2 190C160.7 158.3 152.3 126.7 151.2 95C150 63.3 156 31.7 159 15.8L162 0L200 0L200 15.8C200 31.7 200 63.3 200 95C200 126.7 200 158.3 200 190C200 221.7 200 253.3 200 285C200 316.7 200 348.3 200 380C200 411.7 200 443.3 200 475C200 506.7 200 538.3 200 570C200 601.7 200 633.3 200 665C200 696.7 200 728.3 200 760C200 791.7 200 823.3 200 855C200 886.7 200 918.3 200 950C200 981.7 200 1013.3 200 1045C200 1076.7 200 1108.3 200 1140C200 1171.7 200 1203.3 200 1235C200 1266.7 200 1298.3 200 1330C200 1361.7 200 1393.3 200 1425C200 1456.7 200 1488.3 200 1520C200 1551.7 200 1583.3 200 1615C200 1646.7 200 1678.3 200 1710C200 1741.7 200 1773.3 200 1805C200 1836.7 200 1868.3 200 1884.2L200 1900Z" fill="#f7e065"></path><path d="M163 1900L161.8 1884.2C160.7 1868.3 158.3 1836.7 155 1805C151.7 1773.3 147.3 1741.7 147.8 1710C148.3 1678.3 153.7 1646.7 158.7 1615C163.7 1583.3 168.3 1551.7 170.8 1520C173.3 1488.3 173.7 1456.7 170.7 1425C167.7 1393.3 161.3 1361.7 156.7 1330C152 1298.3 149 1266.7 150.5 1235C152 1203.3 158 1171.7 158.2 1140C158.3 1108.3 152.7 1076.7 152.8 1045C153 1013.3 159 981.7 162.8 950C166.7 918.3 168.3 886.7 165.3 855C162.3 823.3 154.7 791.7 155 760C155.3 728.3 163.7 696.7 168.2 665C172.7 633.3 173.3 601.7 169.8 570C166.3 538.3 158.7 506.7 155.7 475C152.7 443.3 154.3 411.7 153.8 380C153.3 348.3 150.7 316.7 151 285C151.3 253.3 154.7 221.7 156.8 190C159 158.3 160 126.7 160.8 95C161.7 63.3 162.3 31.7 162.7 15.8L163 0L200 0L200 15.8C200 31.7 200 63.3 200 95C200 126.7 200 158.3 200 190C200 221.7 200 253.3 200 285C200 316.7 200 348.3 200 380C200 411.7 200 443.3 200 475C200 506.7 200 538.3 200 570C200 601.7 200 633.3 200 665C200 696.7 200 728.3 200 760C200 791.7 200 823.3 200 855C200 886.7 200 918.3 200 950C200 981.7 200 1013.3 200 1045C200 1076.7 200 1108.3 200 1140C200 1171.7 200 1203.3 200 1235C200 1266.7 200 1298.3 200 1330C200 1361.7 200 1393.3 200 1425C200 1456.7 200 1488.3 200 1520C200 1551.7 200 1583.3 200 1615C200 1646.7 200 1678.3 200 1710C200 1741.7 200 1773.3 200 1805C200 1836.7 200 1868.3 200 1884.2L200 1900Z" fill="#f8da58"></path><path d="M161 1900L164 1884.2C167 1868.3 173 1836.7 175.2 1805C177.3 1773.3 175.7 1741.7 171.8 1710C168 1678.3 162 1646.7 161.5 1615C161 1583.3 166 1551.7 169 1520C172 1488.3 173 1456.7 173.3 1425C173.7 1393.3 173.3 1361.7 170.5 1330C167.7 1298.3 162.3 1266.7 162.3 1235C162.3 1203.3 167.7 1171.7 170.3 1140C173 1108.3 173 1076.7 172.3 1045C171.7 1013.3 170.3 981.7 169.8 950C169.3 918.3 169.7 886.7 168.8 855C168 823.3 166 791.7 167.7 760C169.3 728.3 174.7 696.7 177.3 665C180 633.3 180 601.7 176.8 570C173.7 538.3 167.3 506.7 164 475C160.7 443.3 160.3 411.7 161.5 380C162.7 348.3 165.3 316.7 167.2 285C169 253.3 170 221.7 172 190C174 158.3 177 126.7 175.7 95C174.3 63.3 168.7 31.7 165.8 15.8L163 0L200 0L200 15.8C200 31.7 200 63.3 200 95C200 126.7 200 158.3 200 190C200 221.7 200 253.3 200 285C200 316.7 200 348.3 200 380C200 411.7 200 443.3 200 475C200 506.7 200 538.3 200 570C200 601.7 200 633.3 200 665C200 696.7 200 728.3 200 760C200 791.7 200 823.3 200 855C200 886.7 200 918.3 200 950C200 981.7 200 1013.3 200 1045C200 1076.7 200 1108.3 200 1140C200 1171.7 200 1203.3 200 1235C200 1266.7 200 1298.3 200 1330C200 1361.7 200 1393.3 200 1425C200 1456.7 200 1488.3 200 1520C200 1551.7 200 1583.3 200 1615C200 1646.7 200 1678.3 200 1710C200 1741.7 200 1773.3 200 1805C200 1836.7 200 1868.3 200 1884.2L200 1900Z" fill="#f9d44b"></path><path d="M166 1900L169.3 1884.2C172.7 1868.3 179.3 1836.7 180.2 1805C181 1773.3 176 1741.7 175.3 1710C174.7 1678.3 178.3 1646.7 177.7 1615C177 1583.3 172 1551.7 171.3 1520C170.7 1488.3 174.3 1456.7 174.2 1425C174 1393.3 170 1361.7 169.8 1330C169.7 1298.3 173.3 1266.7 176.7 1235C180 1203.3 183 1171.7 184.2 1140C185.3 1108.3 184.7 1076.7 182.5 1045C180.3 1013.3 176.7 981.7 175.8 950C175 918.3 177 886.7 178.3 855C179.7 823.3 180.3 791.7 178.2 760C176 728.3 171 696.7 171.7 665C172.3 633.3 178.7 601.7 180 570C181.3 538.3 177.7 506.7 176.3 475C175 443.3 176 411.7 176.5 380C177 348.3 177 316.7 176 285C175 253.3 173 221.7 174.2 190C175.3 158.3 179.7 126.7 179.5 95C179.3 63.3 174.7 31.7 172.3 15.8L170 0L200 0L200 15.8C200 31.7 200 63.3 200 95C200 126.7 200 158.3 200 190C200 221.7 200 253.3 200 285C200 316.7 200 348.3 200 380C200 411.7 200 443.3 200 475C200 506.7 200 538.3 200 570C200 601.7 200 633.3 200 665C200 696.7 200 728.3 200 760C200 791.7 200 823.3 200 855C200 886.7 200 918.3 200 950C200 981.7 200 1013.3 200 1045C200 1076.7 200 1108.3 200 1140C200 1171.7 200 1203.3 200 1235C200 1266.7 200 1298.3 200 1330C200 1361.7 200 1393.3 200 1425C200 1456.7 200 1488.3 200 1520C200 1551.7 200 1583.3 200 1615C200 1646.7 200 1678.3 200 1710C200 1741.7 200 1773.3 200 1805C200 1836.7 200 1868.3 200 1884.2L200 1900Z" fill="#face3e"></path><path d="M171 1900L171 1884.2C171 1868.3 171 1836.7 173.2 1805C175.3 1773.3 179.7 1741.7 179.3 1710C179 1678.3 174 1646.7 174.8 1615C175.7 1583.3 182.3 1551.7 184 1520C185.7 1488.3 182.3 1456.7 180.3 1425C178.3 1393.3 177.7 1361.7 179.5 1330C181.3 1298.3 185.7 1266.7 186.3 1235C187 1203.3 184 1171.7 182.2 1140C180.3 1108.3 179.7 1076.7 181.2 1045C182.7 1013.3 186.3 981.7 187.8 950C189.3 918.3 188.7 886.7 187.2 855C185.7 823.3 183.3 791.7 182.3 760C181.3 728.3 181.7 696.7 181.3 665C181 633.3 180 601.7 179.5 570C179 538.3 179 506.7 177.5 475C176 443.3 173 411.7 172.8 380C172.7 348.3 175.3 316.7 175.8 285C176.3 253.3 174.7 221.7 175 190C175.3 158.3 177.7 126.7 180 95C182.3 63.3 184.7 31.7 185.8 15.8L187 0L200 0L200 15.8C200 31.7 200 63.3 200 95C200 126.7 200 158.3 200 190C200 221.7 200 253.3 200 285C200 316.7 200 348.3 200 380C200 411.7 200 443.3 200 475C200 506.7 200 538.3 200 570C200 601.7 200 633.3 200 665C200 696.7 200 728.3 200 760C200 791.7 200 823.3 200 855C200 886.7 200 918.3 200 950C200 981.7 200 1013.3 200 1045C200 1076.7 200 1108.3 200 1140C200 1171.7 200 1203.3 200 1235C200 1266.7 200 1298.3 200 1330C200 1361.7 200 1393.3 200 1425C200 1456.7 200 1488.3 200 1520C200 1551.7 200 1583.3 200 1615C200 1646.7 200 1678.3 200 1710C200 1741.7 200 1773.3 200 1805C200 1836.7 200 1868.3 200 1884.2L200 1900Z" fill="#fcc72f"></path><path d="M179 1900L181 1884.2C183 1868.3 187 1836.7 188.2 1805C189.3 1773.3 187.7 1741.7 185.8 1710C184 1678.3 182 1646.7 182.5 1615C183 1583.3 186 1551.7 187.3 1520C188.7 1488.3 188.3 1456.7 186.5 1425C184.7 1393.3 181.3 1361.7 182.2 1330C183 1298.3 188 1266.7 190.5 1235C193 1203.3 193 1171.7 190.5 1140C188 1108.3 183 1076.7 180.7 1045C178.3 1013.3 178.7 981.7 178.7 950C178.7 918.3 178.3 886.7 180.8 855C183.3 823.3 188.7 791.7 189.8 760C191 728.3 188 696.7 187.3 665C186.7 633.3 188.3 601.7 188.7 570C189 538.3 188 506.7 185.7 475C183.3 443.3 179.7 411.7 180.7 380C181.7 348.3 187.3 316.7 188.2 285C189 253.3 185 221.7 185 190C185 158.3 189 126.7 190.7 95C192.3 63.3 191.7 31.7 191.3 15.8L191 0L200 0L200 15.8C200 31.7 200 63.3 200 95C200 126.7 200 158.3 200 190C200 221.7 200 253.3 200 285C200 316.7 200 348.3 200 380C200 411.7 200 443.3 200 475C200 506.7 200 538.3 200 570C200 601.7 200 633.3 200 665C200 696.7 200 728.3 200 760C200 791.7 200 823.3 200 855C200 886.7 200 918.3 200 950C200 981.7 200 1013.3 200 1045C200 1076.7 200 1108.3 200 1140C200 1171.7 200 1203.3 200 1235C200 1266.7 200 1298.3 200 1330C200 1361.7 200 1393.3 200 1425C200 1456.7 200 1488.3 200 1520C200 1551.7 200 1583.3 200 1615C200 1646.7 200 1678.3 200 1710C200 1741.7 200 1773.3 200 1805C200 1836.7 200 1868.3 200 1884.2L200 1900Z" fill="#fdc11e"></path><path d="M189 1900L189 1884.2C189 1868.3 189 1836.7 190.7 1805C192.3 1773.3 195.7 1741.7 195.2 1710C194.7 1678.3 190.3 1646.7 189.2 1615C188 1583.3 190 1551.7 192.2 1520C194.3 1488.3 196.7 1456.7 196.7 1425C196.7 1393.3 194.3 1361.7 192.3 1330C190.3 1298.3 188.7 1266.7 190 1235C191.3 1203.3 195.7 1171.7 197 1140C198.3 1108.3 196.7 1076.7 196.5 1045C196.3 1013.3 197.7 981.7 197.7 950C197.7 918.3 196.3 886.7 196 855C195.7 823.3 196.3 791.7 196.8 760C197.3 728.3 197.7 696.7 196 665C194.3 633.3 190.7 601.7 191 570C191.3 538.3 195.7 506.7 197.8 475C200 443.3 200 411.7 199 380C198 348.3 196 316.7 194.3 285C192.7 253.3 191.3 221.7 190.2 190C189 158.3 188 126.7 188 95C188 63.3 189 31.7 189.5 15.8L190 0L200 0L200 15.8C200 31.7 200 63.3 200 95C200 126.7 200 158.3 200 190C200 221.7 200 253.3 200 285C200 316.7 200 348.3 200 380C200 411.7 200 443.3 200 475C200 506.7 200 538.3 200 570C200 601.7 200 633.3 200 665C200 696.7 200 728.3 200 760C200 791.7 200 823.3 200 855C200 886.7 200 918.3 200 950C200 981.7 200 1013.3 200 1045C200 1076.7 200 1108.3 200 1140C200 1171.7 200 1203.3 200 1235C200 1266.7 200 1298.3 200 1330C200 1361.7 200 1393.3 200 1425C200 1456.7 200 1488.3 200 1520C200 1551.7 200 1583.3 200 1615C200 1646.7 200 1678.3 200 1710C200 1741.7 200 1773.3 200 1805C200 1836.7 200 1868.3 200 1884.2L200 1900Z" fill="#ffba00"></path></svg>