<svg id="visual" viewBox="0 0 200 1900" width="200" height="1900" xmlns="http://www.w3.org/2000/svg" xmlns:xlink="http://www.w3.org/1999/xlink" version="1.1"><path d="M88 0L86.3 15.8C84.7 31.7 81.3 63.3 75.8 95C70.3 126.7 62.7 158.3 65.2 190C67.7 221.7 80.3 253.3 85 285C89.7 316.7 86.3 348.3 80 380C73.7 411.7 64.3 443.3 61.3 475C58.3 506.7 61.7 538.3 68.2 570C74.7 601.7 84.3 633.3 88 665C91.7 696.7 89.3 728.3 83.8 760C78.3 791.7 69.7 823.3 69.8 855C70 886.7 79 918.3 85.2 950C91.3 981.7 94.7 1013.3 93 1045C91.3 1076.7 84.7 1108.3 82.3 1140C80 1171.7 82 1203.3 83.8 1235C85.7 1266.7 87.3 1298.3 86.7 1330C86 1361.7 83 1393.3 85 1425C87 1456.7 94 1488.3 95.5 1520C97 1551.7 93 1583.3 86.2 1615C79.3 1646.7 69.7 1678.3 67.7 1710C65.7 1741.7 71.3 1773.3 72.8 1805C74.3 1836.7 71.7 1868.3 70.3 1884.2L69 1900L0 1900L0 1884.2C0 1868.3 0 1836.7 0 1805C0 1773.3 0 1741.7 0 1710C0 1678.3 0 1646.7 0 1615C0 1583.3 0 1551.7 0 1520C0 1488.3 0 1456.7 0 1425C0 1393.3 0 1361.7 0 1330C0 1298.3 0 1266.7 0 1235C0 1203.3 0 1171.7 0 1140C0 1108.3 0 1076.7 0 1045C0 1013.3 0 981.7 0 950C0 918.3 0 886.7 0 855C0 823.3 0 791.7 0 760C0 728.3 0 696.7 0 665C0 633.3 0 601.7 0 570C0 538.3 0 506.7 0 475C0 443.3 0 411.7 0 380C0 348.3 0 316.7 0 285C0 253.3 0 221.7 0 190C0 158.3 0 126.7 0 95C0 63.3 0 31.7 0 15.8L0 0Z" fill="#f6f696"></path><path d="M88 0L82.5 15.8C77 31.7 66 63.3 66 95C66 126.7 77 158.3 81.2 190C85.3 221.7 82.7 253.3 77.7 285C72.7 316.7 65.3 348.3 66.2 380C67 411.7 76 443.3 74 475C72 506.7 59 538.3 58.7 570C58.3 601.7 70.7 633.3 73.5 665C76.3 696.7 69.7 728.3 65.5 760C61.3 791.7 59.7 823.3 60.5 855C61.3 886.7 64.7 918.3 67 950C69.3 981.7 70.7 1013.3 72.2 1045C73.7 1076.7 75.3 1108.3 78 1140C80.7 1171.7 84.3 1203.3 82.2 1235C80 1266.7 72 1298.3 67.3 1330C62.7 1361.7 61.3 1393.3 64.2 1425C67 1456.7 74 1488.3 78.5 1520C83 1551.7 85 1583.3 80.5 1615C76 1646.7 65 1678.3 61 1710C57 1741.7 60 1773.3 64 1805C68 1836.7 73 1868.3 75.5 1884.2L78 1900L0 1900L0 1884.2C0 1868.3 0 1836.7 0 1805C0 1773.3 0 1741.7 0 1710C0 1678.3 0 1646.7 0 1615C0 1583.3 0 1551.7 0 1520C0 1488.3 0 1456.7 0 1425C0 1393.3 0 1361.7 0 1330C0 1298.3 0 1266.7 0 1235C0 1203.3 0 1171.7 0 1140C0 1108.3 0 1076.7 0 1045C0 1013.3 0 981.7 0 950C0 918.3 0 886.7 0 855C0 823.3 0 791.7 0 760C0 728.3 0 696.7 0 665C0 633.3 0 601.7 0 570C0 538.3 0 506.7 0 475C0 443.3 0 411.7 0 380C0 348.3 0 316.7 0 285C0 253.3 0 221.7 0 190C0 158.3 0 126.7 0 95C0 63.3 0 31.7 0 15.8L0 0Z" fill="#f6f18a"></path><path d="M65 0L64.5 15.8C64 31.7 63 63.3 63 95C63 126.7 64 158.3 60.5 190C57 221.7 49 253.3 47.8 285C46.7 316.7 52.3 348.3 52.5 380C52.7 411.7 47.3 443.3 47.8 475C48.3 506.7 54.7 538.3 59.2 570C63.7 601.7 66.3 633.3 69.3 665C72.3 696.7 75.7 728.3 74.2 760C72.7 791.7 66.3 823.3 64.7 855C63 886.7 66 918.3 69.5 950C73 981.7 77 1013.3 79.3 1045C81.7 1076.7 82.3 1108.3 78 1140C73.7 1171.7 64.3 1203.3 60.2 1235C56 1266.7 57 1298.3 61 1330C65 1361.7 72 1393.3 71.5 1425C71 1456.7 63 1488.3 61.8 1520C60.7 1551.7 66.3 1583.3 67 1615C67.7 1646.7 63.3 1678.3 58.2 1710C53 1741.7 47 1773.3 46.7 1805C46.3 1836.7 51.7 1868.3 54.3 1884.2L57 1900L0 1900L0 1884.2C0 1868.3 0 1836.7 0 1805C0 1773.3 0 1741.7 0 1710C0 1678.3 0 1646.7 0 1615C0 1583.3 0 1551.7 0 1520C0 1488.3 0 1456.7 0 1425C0 1393.3 0 1361.7 0 1330C0 1298.3 0 1266.7 0 1235C0 1203.3 0 1171.7 0 1140C0 1108.3 0 1076.7 0 1045C0 1013.3 0 981.7 0 950C0 918.3 0 886.7 0 855C0 823.3 0 791.7 0 760C0 728.3 0 696.7 0 665C0 633.3 0 601.7 0 570C0 538.3 0 506.7 0 475C0 443.3 0 411.7 0 380C0 348.3 0 316.7 0 285C0 253.3 0 221.7 0 190C0 158.3 0 126.7 0 95C0 63.3 0 31.7 0 15.8L0 0Z" fill="#f6eb7d"></path><path d="M50 0L51.2 15.8C52.3 31.7 54.7 63.3 53.7 95C52.7 126.7 48.3 158.3 46.5 190C44.7 221.7 45.3 253.3 44.2 285C43 316.7 40 348.3 39.2 380C38.3 411.7 39.7 443.3 40 475C40.3 506.7 39.7 538.3 42.7 570C45.7 601.7 52.3 633.3 55.2 665C58 696.7 57 728.3 55.2 760C53.3 791.7 50.7 823.3 49 855C47.3 886.7 46.7 918.3 46.3 950C46 981.7 46 1013.3 50 1045C54 1076.7 62 1108.3 60.7 1140C59.3 1171.7 48.7 1203.3 48.2 1235C47.7 1266.7 57.3 1298.3 59.3 1330C61.3 1361.7 55.7 1393.3 57 1425C58.3 1456.7 66.7 1488.3 68.5 1520C70.3 1551.7 65.7 1583.3 61.3 1615C57 1646.7 53 1678.3 54 1710C55 1741.7 61 1773.3 62.2 1805C63.3 1836.7 59.7 1868.3 57.8 1884.2L56 1900L0 1900L0 1884.2C0 1868.3 0 1836.7 0 1805C0 1773.3 0 1741.7 0 1710C0 1678.3 0 1646.7 0 1615C0 1583.3 0 1551.7 0 1520C0 1488.3 0 1456.7 0 1425C0 1393.3 0 1361.7 0 1330C0 1298.3 0 1266.7 0 1235C0 1203.3 0 1171.7 0 1140C0 1108.3 0 1076.7 0 1045C0 1013.3 0 981.7 0 950C0 918.3 0 886.7 0 855C0 823.3 0 791.7 0 760C0 728.3 0 696.7 0 665C0 633.3 0 601.7 0 570C0 538.3 0 506.7 0 475C0 443.3 0 411.7 0 380C0 348.3 0 316.7 0 285C0 253.3 0 221.7 0 190C0 158.3 0 126.7 0 95C0 63.3 0 31.7 0 15.8L0 0Z" fill="#f6e671"></path><path d="M53 0L50.7 15.8C48.3 31.7 43.7 63.3 41.2 95C38.7 126.7 38.3 158.3 38.7 190C39 221.7 40 253.3 41.7 285C43.3 316.7 45.7 348.3 45.8 380C46 411.7 44 443.3 44.3 475C44.7 506.7 47.3 538.3 46.8 570C46.3 601.7 42.7 633.3 44.7 665C46.7 696.7 54.3 728.3 53 760C51.7 791.7 41.3 823.3 38 855C34.7 886.7 38.3 918.3 41.7 950C45 981.7 48 1013.3 47.2 1045C46.3 1076.7 41.7 1108.3 42 1140C42.3 1171.7 47.7 1203.3 47.5 1235C47.3 1266.7 41.7 1298.3 43.8 1330C46 1361.7 56 1393.3 60.3 1425C64.7 1456.7 63.3 1488.3 62.5 1520C61.7 1551.7 61.3 1583.3 56.5 1615C51.7 1646.7 42.3 1678.3 41.8 1710C41.3 1741.7 49.7 1773.3 50.8 1805C52 1836.7 46 1868.3 43 1884.2L40 1900L0 1900L0 1884.2C0 1868.3 0 1836.7 0 1805C0 1773.3 0 1741.7 0 1710C0 1678.3 0 1646.7 0 1615C0 1583.3 0 1551.7 0 1520C0 1488.3 0 1456.7 0 1425C0 1393.3 0 1361.7 0 1330C0 1298.3 0 1266.7 0 1235C0 1203.3 0 1171.7 0 1140C0 1108.3 0 1076.7 0 1045C0 1013.3 0 981.7 0 950C0 918.3 0 886.7 0 855C0 823.3 0 791.7 0 760C0 728.3 0 696.7 0 665C0 633.3 0 601.7 0 570C0 538.3 0 506.7 0 475C0 443.3 0 411.7 0 380C0 348.3 0 316.7 0 285C0 253.3 0 221.7 0 190C0 158.3 0 126.7 0 95C0 63.3 0 31.7 0 15.8L0 0Z" fill="#f7e065"></path><path d="M39 0L40.2 15.8C41.3 31.7 43.7 63.3 47 95C50.3 126.7 54.7 158.3 54.2 190C53.7 221.7 48.3 253.3 43.3 285C38.3 316.7 33.7 348.3 31.2 380C28.7 411.7 28.3 443.3 31.3 475C34.3 506.7 40.7 538.3 45.3 570C50 601.7 53 633.3 51.5 665C50 696.7 44 728.3 43.8 760C43.7 791.7 49.3 823.3 49.2 855C49 886.7 43 918.3 39.2 950C35.3 981.7 33.7 1013.3 36.7 1045C39.7 1076.7 47.3 1108.3 47 1140C46.7 1171.7 38.3 1203.3 33.8 1235C29.3 1266.7 28.7 1298.3 32.2 1330C35.7 1361.7 43.3 1393.3 46.3 1425C49.3 1456.7 47.7 1488.3 48.2 1520C48.7 1551.7 51.3 1583.3 51 1615C50.7 1646.7 47.3 1678.3 45.2 1710C43 1741.7 42 1773.3 41.2 1805C40.3 1836.7 39.7 1868.3 39.3 1884.2L39 1900L0 1900L0 1884.2C0 1868.3 0 1836.7 0 1805C0 1773.3 0 1741.7 0 1710C0 1678.3 0 1646.7 0 1615C0 1583.3 0 1551.7 0 1520C0 1488.3 0 1456.7 0 1425C0 1393.3 0 1361.7 0 1330C0 1298.3 0 1266.7 0 1235C0 1203.3 0 1171.7 0 1140C0 1108.3 0 1076.7 0 1045C0 1013.3 0 981.7 0 950C0 918.3 0 886.7 0 855C0 823.3 0 791.7 0 760C0 728.3 0 696.7 0 665C0 633.3 0 601.7 0 570C0 538.3 0 506.7 0 475C0 443.3 0 411.7 0 380C0 348.3 0 316.7 0 285C0 253.3 0 221.7 0 190C0 158.3 0 126.7 0 95C0 63.3 0 31.7 0 15.8L0 0Z" fill="#f8da58"></path><path d="M41 0L38 15.8C35 31.7 29 63.3 26.8 95C24.7 126.7 26.3 158.3 30.2 190C34 221.7 40 253.3 40.5 285C41 316.7 36 348.3 33 380C30 411.7 29 443.3 28.7 475C28.3 506.7 28.7 538.3 31.5 570C34.3 601.7 39.7 633.3 39.7 665C39.7 696.7 34.3 728.3 31.7 760C29 791.7 29 823.3 29.7 855C30.3 886.7 31.7 918.3 32.2 950C32.7 981.7 32.3 1013.3 33.2 1045C34 1076.7 36 1108.3 34.3 1140C32.7 1171.7 27.3 1203.3 24.7 1235C22 1266.7 22 1298.3 25.2 1330C28.3 1361.7 34.7 1393.3 38 1425C41.3 1456.7 41.7 1488.3 40.5 1520C39.3 1551.7 36.7 1583.3 34.8 1615C33 1646.7 32 1678.3 30 1710C28 1741.7 25 1773.3 26.3 1805C27.7 1836.7 33.3 1868.3 36.2 1884.2L39 1900L0 1900L0 1884.2C0 1868.3 0 1836.7 0 1805C0 1773.3 0 1741.7 0 1710C0 1678.3 0 1646.7 0 1615C0 1583.3 0 1551.7 0 1520C0 1488.3 0 1456.7 0 1425C0 1393.3 0 1361.7 0 1330C0 1298.3 0 1266.7 0 1235C0 1203.3 0 1171.7 0 1140C0 1108.3 0 1076.7 0 1045C0 1013.3 0 981.7 0 950C0 918.3 0 886.7 0 855C0 823.3 0 791.7 0 760C0 728.3 0 696.7 0 665C0 633.3 0 601.7 0 570C0 538.3 0 506.7 0 475C0 443.3 0 411.7 0 380C0 348.3 0 316.7 0 285C0 253.3 0 221.7 0 190C0 158.3 0 126.7 0 95C0 63.3 0 31.7 0 15.8L0 0Z" fill="#f9d44b"></path><path d="M36 0L32.7 15.8C29.3 31.7 22.7 63.3 21.8 95C21 126.7 26 158.3 26.7 190C27.3 221.7 23.7 253.3 24.3 285C25 316.7 30 348.3 30.7 380C31.3 411.7 27.7 443.3 27.8 475C28 506.7 32 538.3 32.2 570C32.3 601.7 28.7 633.3 25.3 665C22 696.7 19 728.3 17.8 760C16.7 791.7 17.3 823.3 19.5 855C21.7 886.7 25.3 918.3 26.2 950C27 981.7 25 1013.3 23.7 1045C22.3 1076.7 21.7 1108.3 23.8 1140C26 1171.7 31 1203.3 30.3 1235C29.7 1266.7 23.3 1298.3 22 1330C20.7 1361.7 24.3 1393.3 25.7 1425C27 1456.7 26 1488.3 25.5 1520C25 1551.7 25 1583.3 26 1615C27 1646.7 29 1678.3 27.8 1710C26.7 1741.7 22.3 1773.3 22.5 1805C22.7 1836.7 27.3 1868.3 29.7 1884.2L32 1900L0 1900L0 1884.2C0 1868.3 0 1836.7 0 1805C0 1773.3 0 1741.7 0 1710C0 1678.3 0 1646.7 0 1615C0 1583.3 0 1551.7 0 1520C0 1488.3 0 1456.7 0 1425C0 1393.3 0 1361.7 0 1330C0 1298.3 0 1266.7 0 1235C0 1203.3 0 1171.7 0 1140C0 1108.3 0 1076.7 0 1045C0 1013.3 0 981.7 0 950C0 918.3 0 886.7 0 855C0 823.3 0 791.7 0 760C0 728.3 0 696.7 0 665C0 633.3 0 601.7 0 570C0 538.3 0 506.7 0 475C0 443.3 0 411.7 0 380C0 348.3 0 316.7 0 285C0 253.3 0 221.7 0 190C0 158.3 0 126.7 0 95C0 63.3 0 31.7 0 15.8L0 0Z" fill="#face3e"></path><path d="M31 0L31 15.8C31 31.7 31 63.3 29 95C27 126.7 23 158.3 23.3 190C23.7 221.7 28.3 253.3 27.3 285C26.3 316.7 19.7 348.3 18 380C16.3 411.7 19.7 443.3 21.7 475C23.7 506.7 24.3 538.3 22.5 570C20.7 601.7 16.3 633.3 15.7 665C15 696.7 18 728.3 19.8 760C21.7 791.7 22.3 823.3 20.8 855C19.3 886.7 15.7 918.3 14.2 950C12.7 981.7 13.3 1013.3 14.8 1045C16.3 1076.7 18.7 1108.3 19.7 1140C20.7 1171.7 20.3 1203.3 20.7 1235C21 1266.7 22 1298.3 22.5 1330C23 1361.7 23 1393.3 24.5 1425C26 1456.7 29 1488.3 29.2 1520C29.3 1551.7 26.7 1583.3 26.2 1615C25.7 1646.7 27.3 1678.3 27 1710C26.7 1741.7 24.3 1773.3 22 1805C19.7 1836.7 17.3 1868.3 16.2 1884.2L15 1900L0 1900L0 1884.2C0 1868.3 0 1836.7 0 1805C0 1773.3 0 1741.7 0 1710C0 1678.3 0 1646.7 0 1615C0 1583.3 0 1551.7 0 1520C0 1488.3 0 1456.7 0 1425C0 1393.3 0 1361.7 0 1330C0 1298.3 0 1266.7 0 1235C0 1203.3 0 1171.7 0 1140C0 1108.3 0 1076.7 0 1045C0 1013.3 0 981.7 0 950C0 918.3 0 886.7 0 855C0 823.3 0 791.7 0 760C0 728.3 0 696.7 0 665C0 633.3 0 601.7 0 570C0 538.3 0 506.7 0 475C0 443.3 0 411.7 0 380C0 348.3 0 316.7 0 285C0 253.3 0 221.7 0 190C0 158.3 0 126.7 0 95C0 63.3 0 31.7 0 15.8L0 0Z" fill="#fcc72f"></path><path d="M23 0L21 15.8C19 31.7 15 63.3 13.8 95C12.7 126.7 14.3 158.3 16.2 190C18 221.7 20 253.3 19.5 285C19 316.7 16 348.3 14.7 380C13.3 411.7 13.7 443.3 15.5 475C17.3 506.7 20.7 538.3 19.8 570C19 601.7 14 633.3 11.5 665C9 696.7 9 728.3 11.5 760C14 791.7 19 823.3 21.3 855C23.7 886.7 23.3 918.3 23.3 950C23.3 981.7 23.7 1013.3 21.2 1045C18.7 1076.7 13.3 1108.3 12.2 1140C11 1171.7 14 1203.3 14.7 1235C15.3 1266.7 13.7 1298.3 13.3 1330C13 1361.7 14 1393.3 16.3 1425C18.7 1456.7 22.3 1488.3 21.3 1520C20.3 1551.7 14.7 1583.3 13.8 1615C13 1646.7 17 1678.3 17 1710C17 1741.7 13 1773.3 11.3 1805C9.7 1836.7 10.3 1868.3 10.7 1884.2L11 1900L0 1900L0 1884.2C0 1868.3 0 1836.7 0 1805C0 1773.3 0 1741.7 0 1710C0 1678.3 0 1646.7 0 1615C0 1583.3 0 1551.7 0 1520C0 1488.3 0 1456.7 0 1425C0 1393.3 0 1361.7 0 1330C0 1298.3 0 1266.7 0 1235C0 1203.3 0 1171.7 0 1140C0 1108.3 0 1076.7 0 1045C0 1013.3 0 981.7 0 950C0 918.3 0 886.7 0 855C0 823.3 0 791.7 0 760C0 728.3 0 696.7 0 665C0 633.3 0 601.7 0 570C0 538.3 0 506.7 0 475C0 443.3 0 411.7 0 380C0 348.3 0 316.7 0 285C0 253.3 0 221.7 0 190C0 158.3 0 126.7 0 95C0 63.3 0 31.7 0 15.8L0 0Z" fill="#fdc11e"></path><path d="M13 0L13 15.8C13 31.7 13 63.3 11.3 95C9.7 126.7 6.3 158.3 6.8 190C7.3 221.7 11.7 253.3 12.8 285C14 316.7 12 348.3 9.8 380C7.7 411.7 5.3 443.3 5.3 475C5.3 506.7 7.7 538.3 9.7 570C11.7 601.7 13.3 633.3 12 665C10.7 696.7 6.3 728.3 5 760C3.7 791.7 5.3 823.3 5.5 855C5.7 886.7 4.3 918.3 4.3 950C4.3 981.7 5.7 1013.3 6 1045C6.3 1076.7 5.7 1108.3 5.2 1140C4.7 1171.7 4.3 1203.3 6 1235C7.7 1266.7 11.3 1298.3 11 1330C10.7 1361.7 6.3 1393.3 4.2 1425C2 1456.7 2 1488.3 3 1520C4 1551.7 6 1583.3 7.7 1615C9.3 1646.7 10.7 1678.3 11.8 1710C13 1741.7 14 1773.3 14 1805C14 1836.7 13 1868.3 12.5 1884.2L12 1900L0 1900L0 1884.2C0 1868.3 0 1836.7 0 1805C0 1773.3 0 1741.7 0 1710C0 1678.3 0 1646.7 0 1615C0 1583.3 0 1551.7 0 1520C0 1488.3 0 1456.7 0 1425C0 1393.3 0 1361.7 0 1330C0 1298.3 0 1266.7 0 1235C0 1203.3 0 1171.7 0 1140C0 1108.3 0 1076.7 0 1045C0 1013.3 0 981.7 0 950C0 918.3 0 886.7 0 855C0 823.3 0 791.7 0 760C0 728.3 0 696.7 0 665C0 633.3 0 601.7 0 570C0 538.3 0 506.7 0 475C0 443.3 0 411.7 0 380C0 348.3 0 316.7 0 285C0 253.3 0 221.7 0 190C0 158.3 0 126.7 0 95C0 63.3 0 31.7 0 15.8L0 0Z" fill="#ffba00"></path></svg>